<?xml version="1.0" encoding="UTF-8" standalone="no"?>
<!-- Created with Inkscape (http://www.inkscape.org/) -->

<svg
   width="19.975227mm"
   height="23.270992mm"
   viewBox="0 0 19.975227 23.270992"
   version="1.1"
   id="svg5"
   xml:space="preserve"
   xmlns:inkscape="http://www.inkscape.org/namespaces/inkscape"
   xmlns:sodipodi="http://sodipodi.sourceforge.net/DTD/sodipodi-0.dtd"
   xmlns="http://www.w3.org/2000/svg"
   xmlns:svg="http://www.w3.org/2000/svg"><sodipodi:namedview
     id="namedview7"
     pagecolor="#ffffff"
     bordercolor="#000000"
     borderopacity="0.25"
     inkscape:showpageshadow="2"
     inkscape:pageopacity="0.0"
     inkscape:pagecheckerboard="0"
     inkscape:deskcolor="#d1d1d1"
     inkscape:document-units="mm"
     showgrid="false" /><defs
     id="defs2"><linearGradient
       x1="199.02"
       y1="113.82"
       x2="199.02"
       y2="123.39"
       gradientUnits="userSpaceOnUse"
       spreadMethod="pad"
       id="linearGradient288"
       gradientTransform="matrix(0.25358721,0,0,-0.25362836,270.85163,43.260885)"><stop
         style="stop-opacity:1;stop-color:#f5821f"
         offset="0"
         id="stop284" /><stop
         style="stop-opacity:1;stop-color:#f8c1d9"
         offset="1"
         id="stop286" /></linearGradient><clipPath
       clipPathUnits="userSpaceOnUse"
       id="clipPath641"><g
         id="g645"
         style="stroke-width:0.999999"><path
           d="m 117.40297,11.688925 c 0.25813,-0.04459 0.47343,-0.06029 0.6296,-0.310268 0.0697,-0.111619 0.10312,-0.244016 0.11042,-0.38481 0.26268,-0.0472 0.49199,-0.103011 0.6042,-0.223591 -0.2038,0.0133 -0.40569,0.03129 -0.60709,0.05218 -0.005,-0.06008 -0.0134,-0.120897 -0.025,-0.181398 -0.0647,-0.337079 -0.2062,-0.70739 -0.30272,-0.9885892 C 117.7089,9.3512431 117.597,9.0511351 117.499,8.7514503 c -0.21262,0.5075062 -0.46003,0.9946923 -0.69621,1.4911917 -0.15752,0.331011 -0.29792,0.683613 -0.29499,0.995786 0.004,0.375497 0.26338,0.552309 0.73508,0.8884 -0.0497,-0.15307 -0.13519,-0.298873 -0.1493,-0.459281 l -0.032,-0.36322 c 0.1561,-0.112889 0.3708,-0.176777 0.59651,-0.223802 -0.003,0.03203 -0.008,0.06523 -0.0167,0.100012 -0.0423,0.178611 -0.15269,0.323497 -0.23841,0.508388 z m 0.23922,-0.809766 c -0.13632,0.01658 -0.2728,0.03387 -0.40989,0.05129 l 0.2667,-0.331117 c 0.0675,0.09462 0.11779,0.183797 0.14319,0.279823"
           clip-rule="evenodd"
           id="path643"
           style="stroke-width:0.999999" /></g></clipPath></defs><g
     id="g3489"
     inkscape:export-filename="main_logo.svg"
     inkscape:export-xdpi="96"
     inkscape:export-ydpi="96"
     transform="translate(-109.90005,-7.1664274)"><path
       d="m 117.40297,11.688925 c 0.25813,-0.04459 0.47343,-0.06029 0.6296,-0.310268 0.0697,-0.111619 0.10312,-0.244016 0.11042,-0.38481 0.26268,-0.0472 0.49199,-0.103011 0.6042,-0.223591 -0.2038,0.0133 -0.40569,0.03129 -0.60709,0.05218 -0.005,-0.06008 -0.0134,-0.120897 -0.025,-0.181398 -0.0647,-0.337079 -0.2062,-0.70739 -0.30272,-0.9885892 C 117.7089,9.3512431 117.597,9.0511351 117.499,8.7514503 c -0.21262,0.5075062 -0.46003,0.9946923 -0.69621,1.4911917 -0.15752,0.331011 -0.29792,0.683613 -0.29499,0.995786 0.004,0.375497 0.26338,0.552309 0.73508,0.8884 -0.0497,-0.15307 -0.13519,-0.298873 -0.1493,-0.459281 l -0.032,-0.36322 c 0.1561,-0.112889 0.3708,-0.176777 0.59651,-0.223802 -0.003,0.03203 -0.008,0.06523 -0.0167,0.100012 -0.0423,0.178611 -0.15269,0.323497 -0.23841,0.508388 z m 0.23922,-0.809766 c -0.13632,0.01658 -0.2728,0.03387 -0.40989,0.05129 l 0.2667,-0.331117 c 0.0675,0.09462 0.11779,0.183797 0.14319,0.279823"
       style="fill:url(#linearGradient288);fill-rule:evenodd;stroke:#cccccc;stroke-width:0.107833;stroke-linecap:round;stroke-linejoin:round;stroke-dasharray:none;stroke-opacity:1"
       id="path290"
       clip-path="url(#clipPath641)"
       transform="matrix(1.3911497,0,0,1.390924,-46.895108,-5.0061747)" /><path
       id="path3102"
       style="color:#000000;fill:#cccccc;stroke-miterlimit:22.9256"
       d="m 120.69548,11.244275 c -4.63977,0 -8.40466,3.763037 -8.40466,8.402071 0,4.271771 3.19233,7.798992 7.32048,8.330758 0.0332,0.0156 0.0663,0.03135 0.0997,0.04651 l 0.015,-0.03307 c 0.31808,0.03654 0.6416,0.05633 0.96945,0.05633 4.63963,0 8.40207,-3.761488 8.40207,-8.400521 0,-0.874009 -0.13355,-1.716879 -0.38138,-2.509408 0.0121,-0.02386 0.0173,-0.05005 0.016,-0.07596 -0.002,-0.0466 -0.0203,-0.09235 -0.0429,-0.138493 -0.0423,-0.08655 -0.10254,-0.175818 -0.13177,-0.243912 -0.19793,-0.523824 -0.44691,-1.022421 -0.74053,-1.490349 10e-4,-0.0016 0.002,-0.0031 0.003,-0.0047 l -0.009,-0.0057 c -1.48728,-2.362745 -4.11795,-3.93361 -7.11532,-3.93361 z m -0.0625,0.176217 v 3.005501 c -0.005,-3.6e-5 -0.0107,4.3e-5 -0.016,0 -0.48417,-0.0039 -0.96757,-0.03924 -1.43661,-0.104903 -0.008,-0.0043 -0.0165,-0.0082 -0.0263,-0.0124 -0.0264,-0.01119 -0.0386,-0.02017 -0.045,-0.02584 -0.006,-0.0057 -0.008,-0.0091 -0.0176,-0.01912 -0.009,-0.01004 -0.0277,-0.02195 -0.047,-0.02584 -0.0193,-0.0039 -0.0423,-0.0036 -0.0801,-0.0036 -0.11819,0 -0.22458,-0.0064 -0.28732,-0.0088 0.42959,-1.003823 1.00092,-1.950109 1.72703,-2.799829 0.076,-0.0026 0.1524,-0.0046 0.22893,-0.0052 z m 0.12299,0 c 0.0736,5.3e-4 0.14697,0.0022 0.22014,0.0046 0.72974,0.853807 1.30327,1.804334 1.73374,2.813265 -0.62629,0.122221 -1.28934,0.184749 -1.95388,0.187586 z m 0.38912,0.01189 c 0.33583,0.01809 0.6662,0.05652 0.99012,0.113688 0.99626,0.567817 1.81386,1.271732 2.46445,2.067574 -0.52021,0.265298 -1.12222,0.465022 -1.7663,0.599964 -0.42137,-0.993824 -0.98011,-1.933772 -1.68827,-2.781226 z m -0.91106,5.17e-4 c -0.70751,0.846768 -1.2649,1.785865 -1.6862,2.778642 -0.67145,-0.138074 -1.29716,-0.341793 -1.83296,-0.607198 0.64075,-0.781691 1.44285,-1.474146 2.41691,-2.035535 0.35968,-0.06919 0.72752,-0.115206 1.10225,-0.135909 z m -5.46633,0.02015 -2.89284,0.613399 0.56844,0.505912 c -0.3964,0.553002 -0.7875,1.115785 -1.11725,1.714624 l -0.0191,0.03514 1.50379,0.701249 0.0155,-0.03514 c 0.25389,-0.539555 0.55208,-0.973332 0.88263,-1.468644 l 0.7152,0.517281 z m 7.7308,0.165881 c 1.11142,0.248525 2.13799,0.721459 3.02927,1.369425 -0.23583,0.212983 -0.51142,0.401142 -0.81701,0.566374 -0.59577,-0.732949 -1.33102,-1.389455 -2.21226,-1.935799 z m -3.74034,0.03101 c -0.85685,0.538544 -1.57314,1.181376 -2.15646,1.897558 -0.29542,-0.154922 -0.56032,-0.329868 -0.78807,-0.523482 0.86688,-0.640037 1.8642,-1.113356 2.94453,-1.374076 z m 6.87089,1.412834 c 0.78476,0.589019 1.46097,1.315416 1.99265,2.143021 h -5.2e-4 c -0.0169,0.0077 -0.0319,0.01614 -0.045,0.02325 -0.0432,0.02356 -0.0745,0.05838 -0.1018,0.08992 -0.0273,0.03155 -0.0524,0.06062 -0.0801,0.07803 -0.089,0.05589 -0.18982,0.0941 -0.293,0.130741 v 0.0021 c -0.0453,0.01619 -0.0876,0.04004 -0.12661,0.05478 -0.0391,0.01474 -0.0695,0.01946 -0.0956,0.0078 -0.004,-0.0016 -0.004,-6.31e-4 -0.006,-0.0098 -0.002,-0.0092 -0.003,-0.0275 -0.002,-0.04702 7.8e-4,-0.01954 0.003,-0.04138 0,-0.0646 -0.003,-0.02322 -0.01,-0.05022 -0.031,-0.07028 -0.0757,-0.07082 -0.18153,-0.06638 -0.25786,-0.08165 h -0.002 c -0.10331,-0.02061 -0.21133,-0.04403 -0.32246,-0.03928 -0.0349,0.0016 -0.0573,0.02189 -0.0739,0.03514 -0.0166,0.01324 -0.0279,0.02106 -0.0331,0.02171 -0.0746,0.0091 -0.15725,-0.0113 -0.2465,-0.01395 -0.0638,-0.0019 -0.12831,-0.003 -0.19327,0 -0.0729,0.0034 -0.13623,0.02476 -0.1912,0.01964 -0.0419,-0.0038 -0.079,-0.01342 -0.0997,-0.03101 0.005,-0.0062 0.0134,-0.01348 0.0176,-0.01602 0.003,-0.0017 0.0177,-0.0023 0.0408,-0.0021 0.0231,2.26e-4 0.0608,6.92e-4 0.0863,-0.02894 0.053,-0.06179 0.0752,-0.143769 0.0816,-0.219109 0.006,-0.07095 -0.0332,-0.125508 -0.045,-0.167948 l -0.008,-0.02739 h -0.0274 c 0,0 -0.1239,-4.63e-4 -0.18345,-0.01137 h -0.002 c -0.0698,-0.01261 -0.2244,-0.03043 -0.23461,-0.03152 -0.0529,-0.03354 -0.10824,-0.09978 -0.19689,-0.111104 v -5.17e-4 c -0.10742,-0.01385 -0.21268,0.01814 -0.30644,0.05271 -0.0436,0.01602 -0.0741,0.04543 -0.10128,0.07028 -0.0271,0.02485 -0.0505,0.04419 -0.0744,0.05116 -0.0333,0.0098 -0.0727,0.0078 -0.1173,0.0036 -0.0446,-0.0042 -0.0949,-0.01102 -0.14625,0.0021 -0.10856,0.02744 -0.18861,0.09854 -0.27337,0.130741 -0.11238,0.04255 -0.24262,0.05814 -0.36535,0.111622 -0.087,0.03786 -0.13889,0.107629 -0.20102,0.134358 -0.0669,0.02882 -0.15017,0.03525 -0.23461,0.05478 l -0.0527,0.01189 0.0294,0.04496 c 0,0 0.005,0.0071 0.01,0.01757 0.004,0.0088 0.008,0.01894 0.009,0.02532 -10e-4,0.0022 -0.003,0.0071 -0.007,0.01188 -0.007,0.0096 -0.0185,0.02296 -0.031,0.03514 -0.0251,0.02436 -0.0579,0.04949 -0.0667,0.05478 -0.0285,0.01722 -0.12389,0.07497 -0.14469,0.08785 -0.0492,-0.01835 -0.0977,-0.03716 -0.14831,-0.05478 -0.0549,-0.01895 -0.10188,-0.01957 -0.12299,-0.03721 0.002,0.0013 -0.004,-0.01264 -0.008,-0.03721 -0.002,-0.01228 -0.005,-0.0254 -0.0119,-0.04082 -0.007,-0.01542 -0.0234,-0.03367 -0.045,-0.03927 -0.0394,-0.01012 -0.0746,0.0057 -0.10129,0.0217 -0.0267,0.01603 -0.0492,0.03405 -0.0667,0.04289 -0.0273,0.01394 -0.0635,0.02487 -0.0997,0.04082 -0.0362,0.01594 -0.0738,0.03744 -0.0992,0.07648 -0.0241,0.0373 -0.0163,0.0777 -0.008,0.107487 0.008,0.02978 0.0157,0.05496 0.014,0.06821 -0.005,0.04355 -0.0182,0.08687 -0.0413,0.117305 -0.003,0.0038 -0.0102,0.0086 -0.0233,0.01344 -0.01,0.0037 -0.0232,0.0083 -0.0372,0.01395 -0.005,-2.12e-4 -0.033,-0.002 -0.0703,-0.0041 -0.0404,-0.0023 -0.0893,-0.0066 -0.0956,-0.0078 -0.0158,-0.0031 -0.0311,-0.0018 -0.0527,-0.0021 -0.0217,-2.95e-4 -0.0478,-3.85e-4 -0.0724,0 -0.0489,7.69e-4 -0.0935,0.0021 -0.0935,0.0021 h -0.19327 c -0.0415,0 -0.0684,0.02512 -0.0899,0.04496 -0.0215,0.01984 -0.0446,0.03771 -0.0434,0.03721 -0.007,0.0029 -0.0381,0.01101 -0.0641,0.0155 -0.023,0.004 -0.0385,0.0072 -0.0429,0.0078 0,0 -0.12275,-0.0019 -0.23668,-0.01395 -0.0656,-0.0069 -0.10858,0.0102 -0.1328,0.03566 -0.01,0.01013 -0.006,0.01328 -0.01,0.02325 -0.0736,0.0088 -0.14357,0.02119 -0.21084,0.02119 -0.0126,0 -0.0305,-0.0047 -0.0512,-0.01137 -0.0207,-0.0066 -0.046,-0.01397 -0.076,-0.01189 -0.0508,0.0034 -0.12679,-0.0021 -0.17776,0.05478 -0.0144,0.01564 -0.0205,0.03592 -0.0217,0.05271 -0.001,0.01679 -2.3e-4,0.03199 0.002,0.04496 0.005,0.02595 0.006,0.04334 0.004,0.04858 -0.009,0.02244 -0.0411,0.04419 -0.076,0.0801 -0.0122,0.01256 -0.021,0.01907 -0.0315,0.03152 l 0.002,-0.0062 c 0.005,-0.01423 0.0139,-0.031 0.0233,-0.05271 0.009,-0.02171 0.0202,-0.04893 0.0155,-0.0801 -0.004,-0.03025 -0.0277,-0.04659 -0.0429,-0.05633 -0.0151,-0.0097 -0.0259,-0.01872 -0.0289,-0.0217 -0.0465,-0.04665 -0.0882,-0.10842 -0.15245,-0.156063 -0.0829,-0.06176 -0.174,-0.108896 -0.26355,-0.152445 -0.0636,-0.031 -0.13313,-0.06074 -0.20722,-0.07597 -0.1064,-0.02174 -0.21278,-0.028 -0.31832,-0.03152 -0.0927,-0.0029 -0.18953,-0.0058 -0.28526,0.01188 -0.12347,0.02274 -0.24848,0.05472 -0.36535,0.107487 -0.0838,0.03774 -0.15045,0.09964 -0.21291,0.153996 -0.11188,0.09729 -0.20877,0.207528 -0.31419,0.302824 -0.10127,0.09148 -0.21681,0.172402 -0.32039,0.271818 -0.0493,0.04724 -0.0852,0.100843 -0.12093,0.151929 -0.0351,0.05031 -0.0753,0.103969 -0.1018,0.167948 -0.0178,0.04435 -0.0251,0.09366 -0.0217,0.14056 0.004,0.06094 0.0204,0.121327 0.0393,0.176216 0.007,0.01962 0.0112,0.04857 0.0217,0.07803 0.0105,0.02945 0.0293,0.06173 0.0661,0.07803 0.0363,0.01604 0.0733,0.0083 0.1018,-0.0041 0.0285,-0.01238 0.0533,-0.02931 0.0724,-0.03876 0.007,-0.0037 0.0135,-0.008 0.0191,-0.0124 -0.0614,0.0751 -0.0654,0.17302 -0.0801,0.248564 -0.009,0.04408 4.3e-4,0.0839 0.004,0.117306 0.004,0.0334 0.003,0.05466 -0.008,0.06821 -0.0144,0.01754 -0.0406,0.02517 -0.078,0.03152 -0.0374,0.0063 -0.0841,0.01014 -0.12712,0.03307 -0.0461,0.02453 -0.0723,0.06797 -0.0977,0.09767 -0.0127,0.01485 -0.0245,0.02635 -0.0331,0.03152 -0.009,0.0052 -0.01,0.0058 -0.0176,0.0036 -0.0114,-0.0033 -0.0193,-0.01 -0.0274,-0.02119 -0.008,-0.01123 -0.0169,-0.02688 -0.0238,-0.04702 -0.0139,-0.04031 -0.0224,-0.09229 -0.0507,-0.136943 -0.0744,-0.117839 -0.16829,-0.216673 -0.22479,-0.329696 h -0.002 c -0.0102,-0.02036 -0.0108,-0.05331 -0.0119,-0.09198 -10e-4,-0.03867 -0.003,-0.08606 -0.0351,-0.125057 -0.0244,-0.02919 -0.0595,-0.04062 -0.0935,-0.04289 -0.0341,-0.0023 -0.0688,0.0042 -0.0977,0.02325 -0.0651,0.04264 -0.0795,0.122005 -0.0899,0.179834 -0.0106,0.05753 0.003,0.112875 0.01,0.160197 0.007,0.04732 0.008,0.08185 -0.01,0.107487 -0.003,0.0039 -0.003,0.0029 -0.0103,0.0036 -0.007,7.51e-4 -0.0205,1.2e-5 -0.0367,-0.0036 -0.0324,-0.0073 -0.0726,-0.02392 -0.11937,-0.0155 -0.0461,0.0085 -0.0754,0.0386 -0.0977,0.05633 -0.006,0.0051 -0.0176,0.01274 -0.0295,0.02377 -0.0115,0.01071 -0.0256,0.02878 -0.0274,0.05271 -0.004,0.06572 0.0156,0.125955 0.0315,0.179317 0.003,0.01167 0.008,0.03102 0.0155,0.05116 0.008,0.02014 0.0241,0.04571 0.0548,0.05426 0.0622,0.01746 0.13205,0.0066 0.18552,-0.02894 0.0334,-0.02233 0.0574,-0.05091 0.0775,-0.07958 -0.007,0.01623 -0.0109,0.03196 -0.015,0.04599 -0.007,0.02266 -0.013,0.0404 -0.0217,0.05116 v 0.0021 c 0.003,-0.0033 -0.0196,0.0077 -0.045,0.0155 -0.0127,0.0039 -0.026,0.0062 -0.0408,0.01757 -0.007,0.0057 -0.0156,0.01467 -0.0196,0.02739 -0.004,0.01273 -0.002,0.02816 0.002,0.03876 0.0166,0.04023 0.0503,0.06433 0.0842,0.0801 0.0343,0.01596 0.0703,0.02544 0.0992,0.03359 0.0403,0.01145 0.0764,-3.52e-4 0.10387,-0.0062 -0.008,0.0061 -0.0158,0.0085 -0.0238,0.01757 -0.006,0.0072 -0.0252,0.02131 -0.0444,0.03721 -0.01,0.008 -0.0192,0.01608 -0.0274,0.02945 -0.008,0.01338 -0.0131,0.03182 -0.0103,0.05064 0.002,0.01882 0.0123,0.03465 0.0238,0.04496 0.0115,0.01031 0.024,0.01639 0.0351,0.02119 0.0221,0.0096 0.0422,0.01707 0.0486,0.0217 0.0407,0.02925 0.0792,0.04646 0.0956,0.07028 0.008,0.01139 0.016,0.02875 0.0196,0.04082 9.2e-4,0.0031 0.002,0.0042 0.002,0.0062 -0.037,0.02698 -0.10199,0.02544 -0.17364,0.03514 -0.0894,0.01206 -0.202,-0.01697 -0.31057,0.02739 -0.0772,0.03159 -0.1305,0.102859 -0.15658,0.1757 -0.0299,0.0837 -0.0322,0.178819 -0.008,0.26355 0.0247,0.08482 0.0747,0.168934 0.15037,0.222725 0.0673,0.04781 0.14865,0.03385 0.20671,0.03307 0.0919,-0.0011 0.1932,0.0014 0.28939,-0.03307 0.0958,-0.03433 0.17974,-0.09449 0.25166,-0.162264 0.0771,-0.07251 0.10425,-0.169587 0.1602,-0.220658 0.0447,-0.04073 0.11197,-0.06395 0.17983,-0.09147 0.0295,-0.01189 0.0767,-0.0078 0.12919,-0.03152 0.0421,-0.01892 0.0717,-0.0455 0.10129,-0.06821 0.017,0.013 0.0439,0.03322 0.0842,0.0584 0.0189,0.01183 0.0524,0.04128 0.0837,0.07028 0.0312,0.02901 0.0598,0.05777 0.0858,0.07648 0.0151,0.01075 0.0393,0.03775 0.0625,0.06614 0.0219,0.02692 0.0433,0.05532 0.0625,0.07803 -10e-4,0.0017 -3e-5,0.0034 -0.004,0.0062 -0.0101,0.008 -0.0223,0.01107 -0.0274,0.01344 -0.0154,-0.0019 -0.0328,-0.0061 -0.0548,-0.0098 -0.026,-0.0043 -0.0566,-0.0059 -0.0878,0.0098 -0.0301,0.0149 -0.0403,0.04363 -0.045,0.0646 -0.005,0.02096 -0.009,0.03974 -0.0119,0.04703 l -0.0114,0.02894 0.0269,0.01757 c 0,0 0.0275,0.01725 0.0625,0.03514 0.0349,0.01789 0.0741,0.03721 0.11731,0.03721 0.0178,0 0.0633,0.01126 0.0997,0.0217 0.0364,0.01044 0.0661,0.01964 0.0661,0.01964 l 0.0253,0.0098 0.0181,-0.0217 c 0.0327,-0.04315 0.10333,-0.0854 0.12299,-0.167948 0.0182,-0.07788 -0.0148,-0.149885 -0.0372,-0.207223 -0.0173,-0.04455 -0.054,-0.06494 -0.0703,-0.08165 -0.0567,-0.05795 -0.1101,-0.105013 -0.15813,-0.15658 0.12868,0.09068 0.25497,0.188167 0.35347,0.306958 0.0109,0.01322 0.0143,0.03489 0.0155,0.06615 0.001,0.03126 -5.6e-4,0.06827 0.0155,0.107487 0.021,0.05123 0.05,0.112833 0.10749,0.148311 0.0228,0.01407 0.0502,0.02319 0.0801,0.02532 0.0299,0.0021 0.0696,-0.0052 0.0899,-0.03876 0.025,-0.04143 0.0204,-0.08603 0.0155,-0.122989 -0.005,-0.03696 -0.0108,-0.06976 -0.006,-0.09198 0.004,-0.02055 0.009,-0.04257 0.016,-0.05839 0.007,-0.01582 0.0152,-0.02178 0.0212,-0.02377 0.008,-0.0028 0.0211,-0.0014 0.0372,0.0062 0.0161,0.0075 0.0323,0.02011 0.045,0.03307 0.0421,0.04329 0.0576,0.125909 0.11524,0.195337 0.0421,0.05077 0.0927,0.117999 0.17363,0.14056 0.0775,0.02143 0.15488,0.0142 0.22686,0.0098 0.072,-0.0044 0.13728,-0.0054 0.1912,0.01964 v 0.0021 c 9e-4,0.0038 5.1e-4,0.01291 -0.002,0.02532 -0.005,0.02482 -0.0185,0.05868 -0.0295,0.08216 -0.0229,0.04912 -0.0608,0.09788 -0.0992,0.109038 -0.12891,0.03725 -0.27326,0.02506 -0.42013,0.02946 -0.0546,0.0017 -0.1122,-0.0091 -0.17363,-0.01395 -0.0938,-0.0073 -0.192,-0.02325 -0.293,-0.02325 -0.0869,0 -0.1597,0.0294 -0.22273,0.02325 -0.072,-0.0069 -0.14615,-0.02727 -0.20722,-0.06253 -0.062,-0.03591 -0.11691,-0.08852 -0.1602,-0.148311 -0.0145,-0.01999 -0.0213,-0.05247 -0.031,-0.08992 -0.01,-0.03745 -0.0226,-0.08114 -0.0605,-0.113172 -0.0643,-0.05458 -0.15086,-0.05134 -0.21704,-0.04702 -0.16557,0.01067 -0.3219,0.05813 -0.47645,0.0801 -0.1701,0.02416 -0.34845,0.02593 -0.52504,0.06253 -0.0653,0.01357 -0.12777,0.04456 -0.17776,0.08785 -0.0715,0.06219 -0.11913,0.140517 -0.17002,0.209289 -0.0568,0.07653 -0.10129,0.159157 -0.15451,0.22841 -0.0589,0.0766 -0.13014,0.147023 -0.19534,0.22686 -0.074,0.09022 -0.16567,0.17658 -0.22634,0.288871 -0.0431,0.07991 -0.0574,0.168927 -0.0646,0.253731 -0.008,0.113286 -0.005,0.230663 0.0196,0.343649 0.0228,0.107242 0.0553,0.221985 0.12299,0.316776 0.0986,0.13806 0.23011,0.24061 0.34778,0.349333 0.063,0.05824 0.12507,0.151462 0.23048,0.181901 0.13554,0.03908 0.27224,0 0.39222,0 h 0.002 0.004 c 0,0 0.0888,-0.01143 0.18346,-0.02532 0.0473,-0.0069 0.0951,-0.01529 0.13487,-0.0217 0.0398,-0.0064 0.0681,-0.01039 0.0858,-0.0155 0.0154,-0.0044 0.0651,-0.01277 0.11162,-0.01964 0.0441,-0.0065 0.0838,-0.01107 0.10542,-0.01447 -0.001,8.22e-4 0.0101,0.0015 0.0212,0.0088 0.0148,0.0097 0.0328,0.0259 0.0512,0.04289 0.0184,0.01699 0.0367,0.03596 0.0506,0.05271 0.0139,0.01675 0.024,0.03163 0.0253,0.03514 0.004,0.01173 0.0122,0.07275 0.0176,0.127124 0.003,0.02719 0.005,0.05335 0.008,0.07597 0.003,0.02261 0.004,0.03821 0.0114,0.05684 0.0123,0.03078 0.0977,0.245979 0.0977,0.245979 l 0.002,0.0021 v 0.0021 c 0.0539,0.101733 0.11343,0.197933 0.1602,0.298689 0.0306,0.06624 0.0615,0.130298 0.0703,0.19327 0.008,0.0572 -0.003,0.119212 -0.0176,0.181901 -0.004,0.01774 -0.0109,0.03535 -0.0186,0.05374 -0.0272,-0.106784 -0.0537,-0.214025 -0.0785,-0.321944 l -0.11885,0.02739 c 0.0393,0.170435 0.0816,0.339357 0.12661,0.506946 -0.0132,0.07364 -0.0214,0.150585 -0.0103,0.227893 0.0162,0.11561 0.07,0.215997 0.0997,0.314193 0.0382,0.126103 0.0741,0.253325 0.1111,0.380855 v 0.0021 0.0021 c 0,0 0.041,0.101607 0.0842,0.208773 0.0216,0.05358 0.0438,0.108992 0.0625,0.152445 0.009,0.02173 0.0163,0.03984 0.0233,0.05478 0.007,0.01494 0.0101,0.02295 0.0196,0.03514 0.0148,0.01852 0.0315,0.0291 0.0548,0.04496 0.008,0.0055 0.0184,0.01161 0.0274,0.01757 0.009,0.02378 0.0185,0.04762 0.0279,0.07131 -0.66851,0.135956 -1.29456,0.336333 -1.83606,0.60048 -0.57808,-0.759657 -1.03739,-1.617807 -1.36788,-2.530594 0.51867,-0.264613 1.08664,-0.488827 1.68621,-0.671277 l -0.0351,-0.118856 c -0.60051,0.182736 -1.17046,0.406727 -1.69292,0.67231 -0.34246,-0.983755 -0.53563,-2.027942 -0.56638,-3.078882 h 1.20665 v -0.122989 h -1.20923 c -0.0188,-1.096314 0.13884,-2.197583 0.48989,-3.24218 0.0302,0.01571 0.06,0.0316 0.0904,0.04703 -0.003,0.01222 -0.004,0.02474 -0.004,0.03721 0.004,0.06529 0.0377,0.114025 0.0522,0.156063 l 0.004,0.0078 0.006,0.0083 c 0,0 0.0318,0.03024 0.0682,0.06253 0.0182,0.01614 0.0375,0.0327 0.0548,0.04651 0.0173,0.01381 0.0294,0.02389 0.0486,0.03152 0.0179,0.0071 0.0328,0.0087 0.0527,0.0098 0.0199,0.0011 0.0415,8.17e-4 0.0646,0 0.0462,-0.0016 0.0922,-0.0073 0.12299,-0.01602 0.0297,-0.0086 0.0733,-0.0288 0.12505,-0.05271 0.006,-0.0026 0.0118,-0.0051 0.0176,-0.0078 0.20254,0.08491 0.41019,0.164232 0.62271,0.238228 l 0.0393,-0.117306 c -0.17226,-0.05998 -0.34093,-0.124049 -0.50643,-0.191202 0.0849,-0.04287 0.12764,-0.10542 0.12764,-0.10542 l 0.004,-0.0036 0.002,-0.0062 c 0.008,-0.0261 0.0345,-0.06333 0.0331,-0.115238 -10e-4,-0.03974 -0.0128,-0.08883 -0.0548,-0.118856 -0.0445,-0.03179 -0.0921,-0.01545 -0.12092,-0.01189 h -5.2e-4 c -0.0542,0.007 -0.10978,0.0172 -0.16227,0.03876 v 0.0021 c -0.0626,0.02593 -0.10001,0.06959 -0.13642,0.0801 -0.0558,0.01603 -0.11704,0.0206 -0.17415,0.01189 -0.007,-0.0011 -0.0177,-0.0077 -0.0331,-0.01964 -0.0154,-0.01189 -0.035,-0.02924 -0.0641,-0.03721 -0.0231,-0.0063 -0.0507,-0.01171 -0.0791,-0.01034 -0.0542,-0.02693 -0.10758,-0.05436 -0.16071,-0.08216 0.0106,-0.03018 0.0211,-0.06036 0.032,-0.09043 0.0408,-0.0097 0.0818,-0.02911 0.11937,-0.04754 0.0429,-0.02107 0.0833,-0.04147 0.0956,-0.04496 0.0123,-0.0035 0.0256,-0.01134 0.0331,-0.02532 0.008,-0.01398 0.008,-0.03003 0.006,-0.04082 -0.005,-0.02157 -0.0166,-0.03637 -0.0295,-0.05116 -0.0257,-0.02958 -0.0596,-0.05678 -0.0956,-0.07028 -0.006,-0.0024 -0.0116,-0.0068 -0.017,-0.01189 0.002,-0.0039 0.003,-0.0079 0.005,-0.01188 0.0615,-0.01127 0.15709,-0.02894 0.15709,-0.02894 l 0.0429,-0.0078 -0.0114,-0.04082 c -0.0148,-0.05084 -0.0303,-0.101758 -0.045,-0.152445 l -0.008,-0.02326 -0.0233,-0.0041 c 0,0 -0.003,-5.12e-4 -0.003,-5.17e-4 0.0182,-0.04104 0.0365,-0.08219 0.0553,-0.12299 0.0249,-0.0044 0.0497,-0.01285 0.0723,-0.02894 0.0399,-0.02779 0.0534,-0.07073 0.0605,-0.109038 0.007,-0.03831 0.01,-0.07659 0.0176,-0.101802 0.0162,-0.05239 0.0295,-0.104039 0.0439,-0.155546 0.002,-0.0045 0.005,-0.0089 0.007,-0.01344 0.0136,-0.0099 0.0627,-0.04631 0.10904,-0.08682 0.0386,-0.03378 0.045,-0.08115 0.045,-0.117305 2e-5,-0.02449 -0.004,-0.03371 -0.006,-0.04496 0.007,-0.0079 0.0185,-0.01908 0.0331,-0.03514 0.009,-0.0096 0.0179,-0.02029 0.0238,-0.03669 0.004,-0.01229 0.005,-0.02997 -5.1e-4,-0.04496 0.0898,-0.152231 0.18435,-0.302109 0.28422,-0.449585 0.002,-10e-4 0.0165,-0.0078 0.0165,-0.0078 l 0.0155,-0.0078 0.006,-0.0155 c 0.006,-0.01818 0.0244,-0.04812 0.0408,-0.0801 0.002,-0.0032 0.003,-0.0066 0.005,-0.0098 0.0952,-0.13541 0.19474,-0.268649 0.29869,-0.399459 0.51845,0.26084 1.11756,0.462027 1.75958,0.602547 -0.002,0.0068 -0.005,0.01355 -0.008,0.01964 -0.0101,0.01903 -0.0204,0.0337 -0.0625,0.03721 -0.05,0.0042 -0.0952,1.55e-4 -0.1328,-0.0041 -0.0376,-0.0043 -0.0658,-0.0098 -0.0915,-0.0098 h -0.20929 l 0.002,0.04134 c 0.002,0.01964 -0.001,0.04482 -0.002,0.0739 -5.6e-4,0.02908 0.001,0.0644 0.0217,0.0956 0.0428,0.06802 0.11766,0.09192 0.16382,0.122989 v -0.0015 c 0.0771,0.0521 0.15623,0.09676 0.22996,0.146244 -0.14113,0.391028 -0.2625,0.788954 -0.36432,1.191659 l 0.12092,0.03101 c 0.0968,-0.382967 0.21217,-0.761148 0.34468,-1.133264 0.0108,0.0067 0.0227,0.01217 0.0362,0.01602 0.0295,0.0084 0.0549,-0.0051 0.0703,-0.0155 0.0154,-0.0104 0.0259,-0.02083 0.031,-0.02325 0.0253,-0.01186 0.0513,-0.02315 0.0765,-0.03514 l -0.007,-0.04806 c 0.002,-0.0021 0.002,-0.0019 0.004,-0.0047 l 0.017,0.04082 c 0,0 0.0922,-0.121691 0.12712,-0.181902 0.0171,-0.02923 0.0296,-0.0587 0.0408,-0.08165 0.0112,-0.02295 0.0212,-0.04003 0.0253,-0.04341 -0.004,0.003 0.008,-0.0022 0.0217,-0.0057 0.0138,-0.0034 0.032,-0.0054 0.0506,-0.0078 0.0371,-0.0048 0.0773,-0.0078 0.092,-0.0078 0.0177,0 0.0315,-0.0049 0.0506,-0.0098 0.0191,-0.0049 0.0405,-0.0093 0.0605,-0.0155 0.0398,-0.01253 0.0744,-0.02532 0.0744,-0.02532 l 0.002,-0.0021 h 0.002 c 0,0 0.0136,-0.0041 0.0279,-0.01705 0.46059,0.06188 0.93368,0.09535 1.40767,0.09922 0.005,4.3e-5 0.0107,-3.6e-5 0.016,0 v 1.038696 h 0.12299 v -1.038696 c 0.68099,-0.0027 1.36065,-0.06582 2.00298,-0.192237 0.0899,0.217252 0.17416,0.436777 0.25114,0.658875 l 0.11679,-0.03927 c -0.0753,-0.21728 -0.15735,-0.432022 -0.24494,-0.644922 0.65433,-0.13813 1.2668,-0.342917 1.79782,-0.61805 0.27307,0.344545 0.51592,0.705317 0.72864,1.079521 l 0.10697,-0.06046 c -0.21226,-0.373379 -0.45342,-0.734049 -0.72502,-1.078487 0.31263,-0.171561 0.59559,-0.368003 0.8387,-0.591178 z m -9.9167,0.03721 c 0.23483,0.203146 0.50786,0.38528 0.81028,0.546219 -0.0814,0.102966 -0.16015,0.207377 -0.23616,0.31316 -0.002,-6.83e-4 -0.004,-0.0015 -0.006,-0.0021 -0.0199,-0.0059 -0.0379,-0.0067 -0.0563,-0.0062 -0.0368,0.001 -0.0716,0.0049 -0.092,0.0021 h -0.01 l -0.0103,0.0021 c 0,0 -0.0518,0.02107 -0.1111,0.03876 -0.0297,0.0088 -0.0607,0.01706 -0.0878,0.0217 -0.0271,0.0046 -0.0509,0.0037 -0.0569,0.0021 -0.05,-0.01366 -0.10587,-0.0027 -0.15399,0.0036 -0.0241,0.0032 -0.0458,0.0062 -0.0589,0.0062 -0.007,2e-6 -0.0102,-2.01e-4 -0.01,0 -0.009,-0.01028 -0.0193,-0.02105 -0.0295,-0.02532 -0.0153,-0.0064 -0.0325,-0.0097 -0.047,-0.01188 -0.029,-0.0045 -0.0548,-0.0057 -0.0548,-0.0057 h -0.002 l -0.004,0.0015 c -0.0771,0.01245 -0.15341,0.02461 -0.23048,0.03721 -0.005,-4.92e-4 -0.0453,-0.0039 -0.0977,-0.01137 -0.0336,-0.0047 -0.0561,-0.01125 -0.0842,-0.01757 0.016,-0.0066 0.0302,-0.01184 0.045,-0.0217 -0.001,6.8e-4 0.0122,-0.0057 0.0295,-0.0078 0.0173,-0.0021 0.0395,-0.0021 0.0625,-0.0021 0.0459,0 0.0944,0.0041 0.12299,0.0041 0.0381,0 0.0963,-0.01457 0.154,-0.02739 0.0577,-0.01283 0.10954,-0.02532 0.10955,-0.02532 l 0.0429,-0.01188 -0.0176,-0.03927 c -0.0105,-0.02517 -0.0196,-0.05198 -0.031,-0.07803 l -0.01,-0.01964 -0.0238,-0.0021 c 0,0 -0.0535,-0.005 -0.11317,-0.0098 -0.0597,-0.0048 -0.12272,-0.0093 -0.15038,-0.0093 0.002,0 -0.008,-0.0016 -0.0196,-0.0041 -0.012,-0.0025 -0.0272,-0.0074 -0.045,-0.01189 -0.0357,-0.009 -0.0803,-0.01982 -0.12454,-0.03101 -0.028,-0.0071 -0.0561,-0.01367 -0.0822,-0.01912 0.21553,-0.20453 0.44181,-0.397829 0.67851,-0.578259 z m 0.32556,1.225248 c -0.0648,0.100693 -0.12731,0.202627 -0.18759,0.305408 -0.0234,0.003 -0.0434,0.0061 -0.0517,0.0041 -0.0151,-0.0037 -0.0357,-0.01712 -0.0548,-0.02739 0.008,-0.0203 0.0195,-0.04812 0.0486,-0.111104 0.0161,-0.035 0.0176,-0.05081 0.0196,-0.0646 0.0122,-0.0034 0.0237,-0.0077 0.0372,-0.01395 0.0164,-0.0077 0.0335,-0.01686 0.0527,-0.02687 0.0384,-0.02002 0.0816,-0.04124 0.10749,-0.05271 0.006,-0.0029 0.0191,-0.0087 0.0284,-0.01292 z m -4.99091,0.473356 -0.0176,0.03721 c -0.35284,0.706987 -0.63064,1.457444 -0.82217,2.24224 l -0.008,0.03721 1.74201,0.476457 0.0103,-0.03721 c 0.14849,-0.615035 0.36017,-1.205466 0.6289,-1.765267 l 0.0155,-0.03152 z m 11.05049,0.0098 c -0.073,9.07e-4 -0.14285,0.01853 -0.20878,0.03359 -0.1018,0.02333 -0.21176,0.04017 -0.31471,0.08785 -0.12265,0.05665 -0.22828,0.136045 -0.33383,0.21084 -4.4e-4,3.13e-4 -0.002,-3.13e-4 -0.002,0 l -0.008,0.0057 h -0.002 c -0.0353,0.02477 -0.0707,0.05536 -0.0956,0.0956 v 0.0021 c -0.0212,0.03699 -0.0123,0.06806 -0.014,0.0801 l -0.002,0.02377 0.0196,0.01344 c 0,0 0.0264,0.01768 0.0568,0.03721 0.0152,0.0098 0.0318,0.02155 0.0465,0.02946 0.007,0.004 0.0126,0.0069 0.0196,0.0098 0.004,0.0014 0.008,0.0025 0.0119,0.0036 0.002,5.6e-4 0.005,0.0016 0.008,0.0021 h 0.002 c 8.7e-4,8.9e-5 0.001,-6.6e-5 0.002,0 0.003,0.0017 0.009,0.0056 0.0155,0.0098 0.006,0.004 0.0129,0.0089 0.0202,0.01395 -0.0333,-0.01514 -0.0658,-0.02875 -0.0971,-0.04341 -3.4e-4,-1.64e-4 -0.002,1.76e-4 -0.002,0 -0.0208,-0.0103 -0.0511,-0.03927 -0.0997,-0.03927 h -5.2e-4 c -0.0442,0 -0.0948,0.01037 -0.13281,0.04702 -0.0388,0.03683 -0.0348,0.08543 -0.0372,0.115239 -0.005,0.03786 -0.0133,0.08622 0.01,0.132808 0.0332,0.06767 0.0881,0.113882 0.12505,0.160197 l 0.0139,0.0155 0.0196,-0.0021 c 0,0 0.0515,-0.0053 0.10697,-0.0098 0.0555,-0.0044 0.11975,-0.0078 0.13126,-0.0078 0.0216,0 0.0365,-0.0072 0.0506,-0.0155 0.0141,-0.0084 0.0277,-0.01969 0.0393,-0.02946 0.0232,-0.01953 0.0408,-0.03876 0.0408,-0.03876 l 0.008,-0.0098 0.002,-0.01395 c 0.001,-0.02168 0.0186,-0.05807 0.006,-0.10542 -0.009,-0.03308 -0.0283,-0.06134 -0.0532,-0.08217 l 0.0114,-0.01499 c 0.0246,-0.03289 0.0415,-0.06364 0.0625,-0.08423 0.0561,-0.05519 0.12174,-0.103493 0.18552,-0.15813 0.006,-0.0031 0.0291,-0.01446 0.0625,-0.02946 0.0188,-0.0084 0.0378,-0.01678 0.0548,-0.02325 0.017,-0.0065 0.0331,-0.0095 0.0351,-0.0098 0.0278,-0.0031 0.0424,-0.0155 0.0661,-0.02946 0.0237,-0.01396 0.0513,-0.03127 0.0765,-0.04858 0.0451,-0.03094 0.0777,-0.05436 0.0858,-0.06046 0.0222,-4.85e-4 0.19265,-0.0041 0.20877,-0.0041 0.001,0 0.0228,-0.0071 0.0238,-0.0078 5.2e-4,-3.43e-4 0.009,-0.0073 0.01,-0.0078 4.4e-4,-4.97e-4 0.004,-0.0051 0.006,-0.0078 0.006,-0.01071 0.007,-0.01996 0.008,-0.02739 10e-4,-0.01488 1.4e-4,-0.02764 -0.002,-0.04082 -0.004,-0.02636 -0.0114,-0.05116 -0.0114,-0.05116 l -0.002,-0.0057 -0.004,-0.0057 c -0.005,-0.0068 -0.0113,-0.01937 -0.0196,-0.03514 -0.008,-0.01577 -0.019,-0.03707 -0.0429,-0.04909 h -0.002 c -0.0533,-0.02649 -0.11122,-0.03153 -0.16382,-0.03101 z m -6.68745,0.641822 c 0.005,2.4e-5 0.0103,3.73e-4 0.0155,5.16e-4 -0.0155,0.03423 -0.0309,0.06845 -0.046,0.102837 -0.0435,-0.0062 -0.0614,-0.0085 -0.10439,-0.01447 0.007,-0.008 0.0108,-0.01217 0.0217,-0.0217 0.0374,-0.03262 0.0802,-0.06098 0.0879,-0.06615 0.008,-5.25e-4 0.0166,-0.0011 0.0253,-10e-4 z m -0.2713,0.714168 c -1.3e-4,3.61e-4 -3.9e-4,6.73e-4 -5.2e-4,0.001 -4.7e-4,-2.56e-4 -0.001,-2.61e-4 -0.002,-5.17e-4 7.1e-4,-1.72e-4 0.001,-3.46e-4 0.002,-5.17e-4 z m -0.17518,0.04496 c 0.0442,0.02493 0.0883,0.05012 0.13332,0.07441 -0.35976,1.062851 -0.52164,2.18395 -0.50281,3.300057 h -2.12442 c 0.005,-0.604499 0.0739,-1.19332 0.20206,-1.7601 0.002,0.05987 0.009,0.11851 0.0119,0.168465 0.004,0.05274 0.0332,0.08939 0.0605,0.120923 0.0272,0.03154 0.0521,0.06094 0.0605,0.0863 0.0168,0.04973 0.006,0.11364 0.0103,0.185518 l 0.002,0.03307 0.031,0.0041 c 0,0 0.0853,0.0067 0.17777,0.01757 0.0462,0.0055 0.0946,0.0115 0.13487,0.01757 0.0403,0.0061 0.074,0.01431 0.0837,0.01757 0.0318,0.01059 0.0663,-0.0064 0.0842,-0.02584 0.0179,-0.01943 0.0281,-0.04332 0.0372,-0.06615 0.0182,-0.04565 0.0269,-0.09198 0.0269,-0.09198 l 0.002,-0.01344 -0.008,-0.01395 c -0.0463,-0.0711 -0.0892,-0.148526 -0.1447,-0.220659 -0.0737,-0.09532 -0.15881,-0.175591 -0.22841,-0.263549 -0.0241,-0.03054 -0.0515,-0.111599 -0.0801,-0.177767 -0.0143,-0.03308 -0.028,-0.06287 -0.0527,-0.08578 -0.0123,-0.01145 -0.0288,-0.02208 -0.0486,-0.02377 h -5.2e-4 c -0.0109,-9.32e-4 -0.0208,0.0061 -0.031,0.0098 h -0.014 l -0.0114,0.0083 c -0.0129,0.0091 -0.0241,0.01901 -0.0341,0.02997 0.0989,-0.374557 0.22314,-0.738758 0.37155,-1.090373 0.01,0.01847 0.0225,0.03497 0.0351,0.05013 0.0326,0.03892 0.0693,0.07429 0.0879,0.10387 0.0511,0.08098 0.10139,0.162602 0.1602,0.241845 0.0534,0.07171 0.11023,0.144895 0.1757,0.20929 0.0562,0.05509 0.11448,0.126942 0.20309,0.160197 0.0726,0.02719 0.17499,0.05047 0.25218,-0.0062 0.0415,-0.03025 0.0565,-0.0752 0.0646,-0.116789 0.008,-0.04158 0.0105,-0.08274 0.0191,-0.111621 0.0312,-0.103636 0.0592,-0.207688 0.0879,-0.310575 0,0 0.0239,-0.05102 0.0527,-0.103353 0.0145,-0.02617 0.0302,-0.05188 0.0434,-0.07235 0.007,-0.01023 0.013,-0.01946 0.0176,-0.02532 0.005,-0.0059 0.009,-0.0087 0.004,-0.0057 0.006,-0.0036 0.054,-0.02312 0.10387,-0.04134 0.0499,-0.01822 0.1063,-0.03869 0.15244,-0.0584 0.0444,-0.01906 0.12184,-0.05342 0.19689,-0.08423 0.0751,-0.03081 0.15049,-0.05815 0.17984,-0.06615 0.004,-9.95e-4 0.0103,-0.0025 0.0145,-0.0036 z m 5.26014,0.146761 c -0.0232,0.02778 -0.0474,0.06095 -0.0718,0.07338 -0.0734,0.03728 -0.15926,0.05613 -0.24391,0.06253 -0.0456,0.0035 -0.0954,-0.003 -0.11524,-0.02325 2.4e-4,-0.002 0.002,-0.0055 0.004,-0.01189 0.003,-0.0069 0.006,-0.01951 0.01,-0.02894 0.0349,9.97e-4 0.1899,0.0057 0.22686,0.0057 0.022,0 0.0369,-0.0059 0.0563,-0.01344 0.0194,-0.0075 0.0407,-0.0179 0.0605,-0.02739 0.0389,-0.01873 0.0724,-0.0362 0.0734,-0.03669 z m -1.233,0.09302 c 3e-4,8.9e-5 0.005,0.0043 0.01,0.0155 0.005,0.01125 0.007,0.02726 0.006,0.03721 -0.004,0.03419 -0.0292,0.07204 -0.0589,0.109554 -0.033,0.04179 -0.0977,0.07228 -0.14263,0.136943 -0.0133,0.01905 -0.0294,0.04317 -0.0408,0.07028 -0.0114,0.02711 -0.0198,0.05985 -0.008,0.09353 0.0141,0.04051 0.0427,0.06761 0.0703,0.08992 0.0276,0.02231 0.0558,0.04181 0.0744,0.06046 l 0.0119,0.0098 h 0.2713 c -0.001,0.0064 -0.003,0.0099 -0.006,0.01757 -0.007,0.02174 -0.0123,0.03372 -0.0176,0.04496 -0.0509,2.42e-4 -0.10923,-0.0099 -0.17157,0.01189 -0.0584,0.0203 -0.0854,0.06885 -0.11162,0.09353 -0.073,0.06888 -0.14549,0.13985 -0.21652,0.21084 -0.0343,0.03435 -0.0587,0.07465 -0.0842,0.107487 -0.0255,0.03283 -0.0504,0.05675 -0.0801,0.06821 -0.0894,0.03456 -0.20121,0.01384 -0.31626,0.0098 -0.0329,-0.0012 -0.0661,0.0033 -0.092,0.0021 -0.0259,-0.0013 -0.0371,-0.0064 -0.0429,-0.0155 h -0.002 c -0.0198,-0.03059 -0.0219,-0.07217 -0.0212,-0.12299 6.8e-4,-0.05081 0.005,-0.10916 -0.0176,-0.165882 -0.0124,-0.03026 -0.0361,-0.0469 -0.0625,-0.05891 -0.0132,-0.006 -0.0269,-0.0116 -0.0434,-0.01137 -0.0117,1.6e-4 -0.0253,0.004 -0.0372,0.01189 0.006,-0.0063 0.0115,-0.0129 0.016,-0.01809 0.0112,-0.01304 0.0179,-0.01856 0.0217,-0.01964 0.0304,-0.0085 0.0693,-0.0075 0.0837,0.0041 0.0413,0.03353 0.0641,0.09793 0.10181,0.161748 0.023,0.0394 0.0353,0.09661 0.076,0.146761 0.0256,0.0315 0.0619,0.06307 0.10955,0.07028 0.0445,0.0068 0.0836,-0.01632 0.10904,-0.04496 0.016,-0.01859 0.02,-0.03978 0.0217,-0.05478 0.002,-0.01546 0.003,-0.02687 0.004,-0.03101 0.0173,-0.04797 0.0393,-0.09484 0.0605,-0.144694 0.0273,-0.06427 0.0471,-0.128973 0.078,-0.181384 0.003,-0.0045 0.0158,-0.0157 0.0351,-0.02946 0.01,-0.0069 0.0218,-0.01349 0.0315,-0.02532 0.01,-0.01183 0.0171,-0.02978 0.0176,-0.04909 0.002,-0.05005 -0.0198,-0.0899 -0.0372,-0.125057 -0.0174,-0.03516 -0.0298,-0.06607 -0.0295,-0.09147 0.001,-0.05009 0.0263,-0.107403 0.0625,-0.146761 0.0754,-0.08206 0.17539,-0.14499 0.27544,-0.208773 0.0191,-0.01212 0.0382,-0.02409 0.0548,-0.03152 0.0166,-0.0074 0.0285,-0.01034 0.0372,-0.0078 z m 8.72712,0.782381 c 0.009,-5.87e-4 0.0185,-2.66e-4 0.03,0.001 0.0229,0.0026 0.0492,0.0074 0.0801,0.0062 0.13038,-0.0058 0.28247,0.0254 0.42994,0.03721 0.10587,0.0085 0.21192,0.0061 0.308,-0.02945 0.22539,0.740282 0.34947,1.524727 0.35553,2.337325 h -1.32963 v 0.122989 h 1.32963 c -0.008,1.075293 -0.22197,2.101266 -0.60461,3.040642 -2.2e-4,-4.7e-4 -2.9e-4,-0.0011 -5.2e-4,-0.0016 -0.008,-0.01609 -0.0185,-0.02543 -0.0295,-0.03514 -0.022,-0.01941 -0.0457,-0.03547 -0.0548,-0.04496 -0.0575,-0.05959 -0.11838,-0.12022 -0.18552,-0.173633 -0.0996,-0.07917 -0.2019,-0.15716 -0.31419,-0.222725 -0.0924,-0.0538 -0.18979,-0.107591 -0.29869,-0.134876 -0.12094,-0.03018 -0.2435,-0.02383 -0.35761,-0.03101 -0.0146,-9.5e-4 -0.036,-0.0068 -0.0605,-0.0098 -0.0245,-0.0029 -0.0559,-0.0015 -0.0837,0.01757 -0.024,0.01657 -0.0408,0.03983 -0.0512,0.06666 -0.0104,0.02683 -0.0155,0.05766 -0.004,0.08785 0.008,0.01981 0.0282,0.03368 0.0429,0.03876 0.0146,0.0051 0.0265,0.0051 0.0372,0.0062 0.0107,0.0011 0.019,0.0024 0.0233,0.0036 v -0.0021 c 0.0362,0.05581 0.10639,0.109828 0.16795,0.154513 0.056,0.04068 0.097,0.06504 0.10542,0.07028 0.0196,0.04448 0.0348,0.0973 0.0682,0.146244 0.0297,0.04367 0.0683,0.07992 0.10956,0.109554 0.0339,0.02421 0.0757,0.05312 0.12919,0.05684 0.11184,0.008 0.21518,-0.01964 0.31212,-0.01964 0.0882,0 0.18257,0.01964 0.28164,0.01964 0.0161,0 0.0438,0.0056 0.0739,0.0057 0.0144,3.3e-5 0.0309,-0.0013 0.047,-0.0072 -0.0729,0.172263 -0.15161,0.341438 -0.23564,0.507462 -0.008,-0.01972 -0.0153,-0.03831 -0.0207,-0.05478 -0.0188,-0.05831 -0.0523,-0.102959 -0.0703,-0.144694 -0.0188,-0.04339 -0.0207,-0.107866 -0.0641,-0.165881 -0.0323,-0.04325 -0.0827,-0.0925 -0.15038,-0.0956 -0.0329,-0.0015 -0.0588,0.01237 -0.0801,0.02945 -0.0213,0.01707 -0.0397,0.03814 -0.0527,0.05633 -0.0486,0.06805 -0.0783,0.144295 -0.10387,0.219109 v 0.0015 h -0.002 c -0.0118,0.03764 -0.002,0.07002 0,0.09405 8.3e-4,0.01017 5.5e-4,0.01733 0,0.02119 -0.0102,0.0035 -0.0232,0.002 -0.0434,-0.0098 -0.0211,-0.01223 -0.0439,-0.03202 -0.0625,-0.05064 -0.0584,-0.05835 -0.10053,-0.139749 -0.14418,-0.220659 v -0.0021 c -0.006,-0.01232 -0.009,-0.03526 -0.014,-0.06253 -0.005,-0.02809 -0.0143,-0.06581 -0.047,-0.08992 -0.0607,-0.04471 -0.14279,-0.05411 -0.21291,-0.03514 -0.0407,0.01122 -0.0702,0.03591 -0.0951,0.06046 -0.018,0.01771 -0.0335,0.03636 -0.0486,0.05116 -0.18769,-0.136397 -0.38989,-0.263087 -0.60564,-0.379822 0.006,-0.01988 0.0118,-0.04002 0.0181,-0.05994 0.0451,-0.02057 0.0846,-0.05302 0.11266,-0.09354 0.0236,-0.0342 0.023,-0.07235 0.0217,-0.101802 -10e-4,-0.02945 -10e-4,-0.05257 0.004,-0.06615 0.018,-0.04656 0.0568,-0.09077 0.094,-0.142627 0.004,-0.0055 0.0324,-0.02523 0.0563,-0.04496 0.0119,-0.0099 0.024,-0.01903 0.0331,-0.03721 0.005,-0.0091 0.007,-0.02317 0.004,-0.03721 -0.003,-0.01404 -0.0104,-0.02592 -0.0196,-0.03307 -0.0395,-0.03036 -0.088,-0.03051 -0.12868,-0.02532 -0.005,5.86e-4 -0.009,0.0014 -0.014,0.0021 0.14116,-0.564425 0.23586,-1.1424 0.28112,-1.724959 l -0.12299,-0.0098 c -0.0461,0.592939 -0.14343,1.181038 -0.2899,1.754415 -0.0539,0.0071 -0.10529,0.01901 -0.15503,0.02687 l -0.0196,0.0021 -0.01,0.01757 c 0,0 -0.0412,0.07889 -0.0765,0.12299 -0.0288,0.03592 -0.0433,0.08736 -0.0563,0.132808 -0.013,0.04544 -0.0196,0.08423 -0.0196,0.08423 l -0.004,0.01757 0.01,0.01344 c 0.0196,0.02521 0.0392,0.06651 0.0786,0.09767 -0.0643,-0.03182 -0.12956,-0.0628 -0.19586,-0.09302 0.0414,-0.03825 0.0891,-0.08021 0.11473,-0.143144 0.019,-0.04642 0.0164,-0.09269 0.0134,-0.134876 -0.003,-0.04219 -0.007,-0.08102 -0.002,-0.113171 0.008,-0.05031 0.0489,-0.105258 0.061,-0.179834 0.007,-0.0452 0.0151,-0.104117 -0.0139,-0.156063 -0.0141,-0.02496 -0.034,-0.05137 -0.0584,-0.07441 -0.0244,-0.02304 -0.0555,-0.04363 -0.0941,-0.04496 h -5.1e-4 c -0.0867,-0.003 -0.14589,0.06399 -0.19379,0.09767 -0.0767,0.05379 -0.13538,0.12067 -0.20102,0.170015 -0.02,0.01495 -0.0477,0.02811 -0.078,0.04289 -0.0303,0.01478 -0.0646,0.03224 -0.0899,0.0646 -0.0469,0.05977 -0.0578,0.134553 -0.0661,0.198955 -0.001,0.0087 -0.001,0.0175 -0.002,0.02584 -0.099,-0.0352 -0.20013,-0.0686 -0.30231,-0.100769 1.3e-4,-0.0011 3.4e-4,-0.0013 5.2e-4,-0.0026 0.002,-0.01444 0.01,-0.03526 0.01,-0.06046 2.2e-4,-0.04055 10e-4,-0.08097 0,-0.12299 v -0.0021 c -0.003,-0.04717 -0.008,-0.09246 -0.0119,-0.136426 l -0.002,-0.0098 -0.004,-0.0078 c 0,0 -0.0143,-0.01943 -0.0274,-0.04341 -0.007,-0.01199 -0.0132,-0.02622 -0.0176,-0.03669 -0.004,-0.01047 -0.004,-0.01971 -0.004,-0.01602 0,-0.02674 -0.0153,-0.03995 -0.0274,-0.05271 -0.0121,-0.01276 -0.0253,-0.02423 -0.0408,-0.03514 -0.031,-0.02181 -0.0669,-0.03985 -0.092,-0.05064 1.8e-4,7.7e-5 -10e-4,-0.0018 -0.004,-0.0078 -0.003,-0.006 -0.006,-0.01505 -0.008,-0.02532 -0.002,-0.01371 -0.002,-0.02003 -0.002,-0.02739 0.0129,-0.01195 0.0262,-0.02463 0.0351,-0.03307 0.0129,-0.0123 0.0171,-0.01433 0.0196,-0.01395 0.004,5.68e-4 0.0104,0.0088 0.0233,0.02946 0.0129,0.02067 0.0289,0.0527 0.0667,0.06821 0.0662,0.02697 0.15048,0.05262 0.23047,0.02532 0.0777,-0.02634 0.11102,-0.103134 0.14211,-0.151929 0.0305,-0.04796 0.0631,-0.105014 0.0667,-0.172082 0.004,-0.06388 -0.0176,-0.125245 -0.047,-0.1757 -0.0395,-0.06756 -0.10267,-0.100366 -0.13074,-0.142627 -0.0181,-0.02711 -0.0412,-0.05231 -0.0548,-0.07441 -0.007,-0.01105 -0.0106,-0.02093 -0.0119,-0.02739 -0.001,-0.0065 -0.002,-0.0094 0,-0.01344 0.0287,-0.05387 0.11382,-0.085 0.19172,-0.103353 0.0259,-0.0061 0.0574,10e-4 0.0956,0.0098 0.0382,0.0087 0.0826,0.02008 0.13074,0.0098 0.0822,-0.01747 0.13661,-0.07771 0.18965,-0.111622 0.10436,-0.06652 0.21839,-0.126551 0.31833,-0.210839 0.0644,-0.05407 0.12152,-0.119751 0.16226,-0.195337 0.0369,-0.06823 0.0533,-0.145929 0.0605,-0.218592 0.006,-0.06627 -0.005,-0.12973 -0.0196,-0.189652 -0.0156,-0.06522 -0.0519,-0.112918 -0.0605,-0.154513 -0.003,-0.01509 8.8e-4,-0.04426 0.004,-0.0739 0.0143,-0.0081 0.0609,-0.03347 0.12299,-0.08423 0.083,-0.06815 0.0625,-0.167948 0.0625,-0.167948 l -0.006,-0.02325 -0.0233,-0.0062 c 0,0 -0.0289,-0.005 -0.061,-0.01137 -0.0321,-0.0063 -0.0622,-0.01395 -0.0879,-0.01395 -0.0279,0 -0.10022,-0.002 -0.13436,-0.0057 3e-5,-0.0031 -4.7e-4,-0.004 0,-0.0078 0.002,-0.01437 0.006,-0.025 0.008,-0.03152 0.0151,-0.01066 0.0298,-0.02081 0.0408,-0.02894 0.0153,-0.01127 0.0259,-0.01641 0.0336,-0.01602 0.009,5.24e-4 0.0198,0.0065 0.0351,0.01964 0.0153,0.01313 0.0324,0.03319 0.0563,0.04909 l 0.004,0.0021 0.006,0.0016 c 0,0 0.0367,0.01077 0.078,0.0217 0.0206,0.0055 0.0435,0.01127 0.0625,0.0155 0.019,0.0042 0.032,0.0078 0.0486,0.0078 0.003,0 0.0211,0.0053 0.0351,0.01188 0.008,0.0036 0.009,0.0053 0.0139,0.0078 0.0276,0.05884 0.0574,0.11643 0.0822,0.174149 0.005,0.01191 0.008,0.03615 0.0134,0.06408 0.005,0.02793 0.0178,0.06656 0.0548,0.08423 0.0179,0.0085 0.0395,0.0061 0.0548,0 0.0153,-0.0061 0.0256,-0.01489 0.0351,-0.02377 0.0188,-0.01775 0.0344,-0.03797 0.0429,-0.04496 0.012,-0.0099 0.0308,-0.02096 0.0506,-0.03669 0.0198,-0.01573 0.0433,-0.03685 0.0491,-0.07028 v -0.0021 c 0.0142,-0.08685 -0.0243,-0.162571 -0.0372,-0.22686 v -0.0021 c -0.0114,-0.05917 -0.0369,-0.103721 -0.031,-0.132808 10e-4,-0.0056 0.006,-0.01316 0.0176,-0.02325 0.0114,-0.0101 0.0265,-0.02084 0.0429,-0.03514 0.0516,-0.04467 0.10124,-0.08848 0.15451,-0.117305 0.0577,-0.03129 0.1378,-0.03833 0.21446,-0.0801 0.0589,-0.03192 0.10119,-0.07884 0.14263,-0.115238 0.0746,-0.06569 0.15172,-0.131775 0.22272,-0.206706 0.0495,-0.05248 0.067,-0.112686 0.0997,-0.136942 0.0109,-0.0082 0.0291,-0.01632 0.0429,-0.01964 0.0137,-0.0033 0.0185,-0.001 0.0196,0 4.1e-4,0.0026 10e-4,0.009 0,0.01757 -0.003,0.01708 -0.0112,0.04051 -0.0119,0.06873 v 0.0015 c 0,0.0144 -0.007,0.03635 -0.0114,0.06253 -0.005,0.02618 -0.009,0.0602 0.01,0.09198 5.6e-4,9.69e-4 10e-4,0.0017 0.002,0.0026 -0.023,0.0025 -0.0459,0.0077 -0.0682,0.01654 -0.0611,0.02405 -0.0837,0.0877 -0.0961,0.134876 -0.005,0.02205 -0.0121,0.05019 -0.0114,0.0801 6.4e-4,0.02991 0.0107,0.06659 0.0429,0.08785 0.03,0.01986 0.0624,0.03286 0.0956,0.04186 -0.004,0.0016 -0.008,0.0029 -0.0119,0.0047 -0.059,0.0266 -0.10401,0.06816 -0.14625,0.101802 -0.0469,0.03749 -0.0857,0.07907 -0.12712,0.113172 -0.0759,0.06225 -0.15019,0.126059 -0.22841,0.179834 -0.0512,0.03515 -0.11262,0.06112 -0.17363,0.0956 -0.0136,0.0073 -0.042,0.01486 -0.0703,0.02532 -0.0145,0.0054 -0.0292,0.01187 -0.0434,0.02325 -0.0142,0.01137 -0.0266,0.02992 -0.031,0.05116 -0.004,0.0206 0.002,0.0415 0.0119,0.05633 0.01,0.01483 0.022,0.0251 0.0351,0.03359 0.0256,0.01663 0.0546,0.02735 0.078,0.03307 0.0803,0.01943 0.16502,0.01463 0.24236,0 0.1039,-0.01951 0.20882,-0.04996 0.30438,-0.101803 0.0738,-0.03998 0.14438,-0.09707 0.19171,-0.169499 0.0464,-0.0712 0.0546,-0.154409 0.0682,-0.224792 l 0.0119,-0.0646 -0.0103,0.0041 c 0.008,-0.0418 0.0218,-0.08208 0.006,-0.129191 -0.002,-0.0058 -0.005,-0.01113 -0.008,-0.01602 0.0288,0.0021 0.0571,0.0026 0.0842,0.0026 0.0278,0 0.0605,-0.0023 0.092,-0.01189 0.0315,-0.0097 0.0649,-0.02725 0.0842,-0.06046 0.0385,-0.06615 0.0122,-0.144811 -0.0196,-0.197404 -0.0332,-0.05495 -0.0932,-0.08261 -0.14676,-0.0956 -0.0125,-0.003 -0.0255,-0.0058 -0.0388,-0.0083 0.005,-0.0029 0.011,-0.0057 0.0155,-0.0088 0.0429,-0.02965 0.0702,-0.07167 0.0915,-0.111104 0.0204,-0.03755 0.0426,-0.08409 0.0413,-0.136943 -0.003,-0.08658 -0.0392,-0.159673 -0.0491,-0.226343 -0.0104,-0.06414 -0.002,-0.138468 -0.0191,-0.217041 -0.007,-0.03186 -0.0101,-0.0747 -0.0196,-0.117305 -0.01,-0.04261 -0.0264,-0.09 -0.0703,-0.117306 -0.022,-0.01362 -0.0508,-0.01284 -0.0703,-0.0057 -0.0195,0.0072 -0.0333,0.01882 -0.047,0.02945 -0.0273,0.02128 -0.0522,0.0379 -0.0605,0.03876 -0.0329,0.0033 -0.0765,-0.02058 -0.13281,-0.03514 h -0.002 c -0.002,-6.29e-4 -0.0653,-0.02019 -0.10955,-0.03307 3.9e-4,-0.0024 -0.001,-0.0024 0,-0.0057 0.005,-0.01479 0.0151,-0.02995 0.016,-0.03152 5e-5,-7.9e-5 0,-0.0021 0,-0.0021 0.0608,-0.05305 0.12266,-0.105533 0.18345,-0.15813 0.0624,-0.05381 0.1056,-0.114648 0.16175,-0.14056 0.006,-0.0029 0.014,-0.0046 0.0227,-0.0052 z m -10.79056,0.499195 c 10e-4,0.01004 -0.001,0.02569 -0.002,0.02739 -0.006,0.01384 -0.0213,0.02528 -0.0429,0.04083 -0.0162,0.01166 -0.0355,0.02429 -0.0532,0.04237 0.0116,-0.01789 0.0229,-0.03463 0.0357,-0.04806 0.0178,-0.01874 0.0325,-0.03799 0.045,-0.05116 0.009,-0.009 0.0129,-0.0096 0.0176,-0.01137 z m -6.8957,0.232027 -0.008,0.03927 c -0.0819,0.535862 -0.12299,1.085634 -0.12299,1.644344 0,0.05307 -5e-4,0.105281 0,0.15813 v 0.03927 l 1.76372,-0.01757 h 0.0393 v -0.03927 c -0.007,-0.486863 0.0232,-0.966058 0.0915,-1.433504 l 0.006,-0.03514 z m 2.43809,1.744079 h 2.127 c 0.0309,1.071155 0.22774,2.135648 0.57878,3.137793 -0.27198,0.143301 -0.53111,0.29775 -0.77308,0.464055 0.001,-0.0033 0.002,-0.0066 0.004,-0.0098 0.0291,-0.07302 0.0326,-0.145407 0.0625,-0.191203 0.0113,-0.01721 0.0322,-0.03194 0.0589,-0.04909 0.0267,-0.01715 0.0582,-0.03666 0.0817,-0.07028 0.0379,-0.05397 0.076,-0.120563 0.0723,-0.197404 -0.005,-0.117407 -0.0446,-0.22958 -0.0894,-0.331763 -0.0246,-0.05626 -0.0616,-0.119589 -0.12712,-0.150378 -0.0963,-0.04558 -0.2032,-0.05126 -0.29869,-0.05891 -0.1413,-0.01112 -0.27658,0.0168 -0.40256,0.0021 -0.0849,-0.0099 -0.16975,-0.02052 -0.22066,-0.06253 0.002,-0.0034 0.002,-0.0043 0.006,-0.0098 0.0131,-0.01887 0.0389,-0.04432 0.0408,-0.08578 v -0.0021 c 0.002,-0.0684 -6.1e-4,-0.146672 -0.0372,-0.214974 -0.0336,-0.0629 -0.0948,-0.09709 -0.14625,-0.12454 -0.12584,-0.06695 -0.25931,-0.114868 -0.38705,-0.166398 -0.0484,-0.01954 -0.11132,-0.07032 -0.1757,-0.109038 -0.0322,-0.01936 -0.0651,-0.03484 -0.10129,-0.04134 h -5.1e-4 c -0.0248,-0.0045 -0.051,-0.0024 -0.076,0.0072 -0.12454,-0.55924 -0.19207,-1.139981 -0.19637,-1.735812 z m 9.22993,0.558106 c 0.0129,5.23e-4 0.0264,0.0015 0.0403,0.0031 0.0539,0.0063 0.1129,0.02083 0.17363,0.0217 0,0 0.0545,0.0077 0.11524,0.01757 0.0607,0.0099 0.13289,0.02415 0.14624,0.02945 -10e-4,-4.53e-4 0.0183,0.01372 0.0372,0.03307 0.0189,0.01936 0.0403,0.04368 0.0605,0.06821 0.0405,0.04906 0.0765,0.0956 0.0765,0.0956 0.0814,0.128388 0.17528,0.245964 0.23616,0.375171 0.0664,0.140973 0.0772,0.314861 0.1602,0.470773 0.0437,0.08205 0.12849,0.118323 0.17983,0.162264 0.0314,0.02692 0.0627,0.05539 0.0956,0.08372 -0.26794,-0.03473 -0.54036,-0.0616 -0.81597,-0.08062 l -0.008,0.12299 c 0.46,0.03174 0.91027,0.08597 1.34462,0.162264 -0.16847,1.041001 -0.4449,2.046098 -0.81648,2.976563 -0.63236,-0.122015 -1.30032,-0.182921 -1.96939,-0.185519 v -0.560689 l 5.1e-4,-5.17e-4 c 0.0311,-0.03125 0.0549,-0.06878 0.0734,-0.101286 l 0.0336,-0.05633 h -0.0217 c 0.0239,-0.07488 0.0338,-0.153527 0.047,-0.217041 l 0.002,-0.0057 v -0.0062 c 0,0 -0.0109,-0.09321 0,-0.232027 0.011,-0.141315 0.0212,-0.217041 0.0212,-0.217041 v -0.0021 -0.0021 c 9.7e-4,-0.01773 0.0117,-0.04724 0.0196,-0.0801 0.004,-0.01643 0.007,-0.03488 0.006,-0.05426 -0.001,-0.01937 -0.01,-0.03998 -0.0253,-0.05684 -0.0289,-0.03114 -0.0703,-0.04112 -0.10956,-0.04082 -0.0159,1.24e-4 -0.032,0.0018 -0.047,0.0057 V 22.53911 h -0.12299 v 0.578259 c -0.009,0.01991 -0.0171,0.0405 -0.0238,0.06046 -0.0175,0.05229 -0.0304,0.103057 -0.0527,0.142627 -0.0414,0.07342 -0.0974,0.140635 -0.15038,0.214458 -0.0207,0.02886 -0.0577,0.05929 -0.0915,0.09405 -0.0338,0.03476 -0.0669,0.07891 -0.0687,0.136425 -7.6e-4,0.05142 0.0359,0.08573 0.0687,0.109554 0.0328,0.02383 0.0674,0.04316 0.0858,0.06046 0.027,0.02529 0.0533,0.06537 0.0858,0.103353 0.0326,0.03799 0.0743,0.07694 0.1328,0.08216 0.005,4e-4 0.009,5.93e-4 0.014,5.17e-4 v 0.499711 c -0.005,3.5e-5 -0.0103,-4.2e-5 -0.0155,0 -0.52001,0.0042 -1.03957,0.04379 -1.54202,0.117822 0.1308,-0.07168 0.2462,-0.166574 0.3514,-0.267683 0.10008,-0.09619 0.17994,-0.209549 0.25631,-0.320394 0.0618,-0.0895 0.12472,-0.183348 0.16382,-0.290939 0.0178,-0.04872 0.0133,-0.09761 0.0119,-0.138493 -0.001,-0.04088 8.4e-4,-0.07243 0.0155,-0.09405 0.0197,-0.02892 0.0595,-0.04724 0.10748,-0.06821 0.048,-0.02097 0.10401,-0.04354 0.1385,-0.09767 0.0868,-0.136071 0.10961,-0.297893 0.14056,-0.443384 0.0196,-0.09167 0.02,-0.185606 0.0139,-0.275435 -0.005,-0.08031 -0.0436,-0.141377 -0.0429,-0.19327 9.3e-4,-0.05709 0.0119,-0.118011 0.0408,-0.15813 0.0681,-0.0944 0.17735,-0.162599 0.26769,-0.259932 0.0771,-0.08311 0.15113,-0.170063 0.21859,-0.261483 0.0724,-0.09787 0.15327,-0.197418 0.20722,-0.31471 0.0368,-0.0795 0.056,-0.169667 0.0527,-0.257865 -9.4e-4,-0.02583 -0.006,-0.05579 -0.0196,-0.08372 -0.0132,-0.02793 -0.0397,-0.0598 -0.0801,-0.06098 -0.0506,-0.0015 -0.0882,0.02856 -0.1173,0.05271 -0.029,0.02416 -0.0524,0.04452 -0.0724,0.04909 -0.0209,0.0048 -0.0594,0.0084 -0.0915,0.0098 0.0651,-0.08028 0.16473,-0.140827 0.26924,-0.199471 0.063,-0.03536 0.16054,-0.02957 0.25011,-0.0801 0.11115,-0.06258 0.22564,-0.135722 0.31058,-0.239779 0.0678,-0.0829 0.082,-0.188568 0.10748,-0.273885 0.0138,-0.04636 0.006,-0.09234 0.006,-0.128674 -1.6e-4,-0.01817 10e-4,-0.03151 0.004,-0.04083 0.003,-0.0093 0.005,-0.01392 0.0119,-0.01757 0.0292,-0.01615 0.0635,-0.02069 0.10232,-0.01912 z m 2.19005,0.2651 c 0.0115,-2.6e-4 0.0252,0.0052 0.0413,0.01964 0.0161,0.01444 0.0325,0.03633 0.0486,0.05633 0.05,0.06185 0.089,0.136601 0.12713,0.212907 0.004,0.007 0.005,0.02882 0.008,0.05478 0.002,0.01298 0.005,0.0278 0.0119,0.04289 0.007,0.01509 0.0187,0.03059 0.0372,0.03927 0.0217,0.01022 0.046,0.0065 0.0625,0 0.0165,-0.0065 0.0297,-0.01434 0.0408,-0.0217 0.0111,-0.0074 0.0198,-0.01328 0.0253,-0.0155 l 0.002,-0.0021 c 0.0452,0.01987 0.09,0.07415 0.0997,0.12299 0.01,0.04661 -10e-5,0.09768 -0.0103,0.154512 -0.01,0.05684 -0.0216,0.118786 -0.0114,0.183452 0.0154,0.09671 0.0754,0.171522 0.11524,0.242362 v 0.0021 c 0.0139,0.02468 0.032,0.03806 0.045,0.05064 0.013,0.01259 0.0199,0.02139 0.0212,0.02739 -3.4e-4,-0.0015 -0.002,0.0088 -0.0114,0.02739 -0.001,0.0021 -0.003,0.0055 -0.004,0.0078 -0.0199,-0.01216 -0.0377,-0.02582 -0.0584,-0.03721 h -0.002 c -0.0611,-0.03354 -0.1308,-0.103352 -0.22892,-0.103352 -0.0201,0 -0.0364,0.0077 -0.0486,0.01912 -0.0123,0.01147 -0.0216,0.02542 -0.0274,0.03927 -0.0117,0.0277 -0.0151,0.05709 -0.01,0.08578 v 0.0021 c 0.008,0.04039 0.0334,0.06757 0.0548,0.08992 0.005,0.0053 0.009,0.0097 0.0134,0.01447 -0.17918,-0.04254 -0.36217,-0.08088 -0.54777,-0.115238 0.0391,-0.255074 0.0716,-0.512411 0.0977,-0.771013 l -0.12299,-0.01188 c -0.0257,0.254948 -0.0581,0.508684 -0.0966,0.76016 -0.082,-0.01429 -0.16453,-0.02758 -0.24753,-0.04031 0.002,-0.02695 -0.002,-0.05309 -0.006,-0.07235 -0.0192,-0.09805 -0.0763,-0.174238 -0.092,-0.250114 -0.0236,-0.110475 -0.053,-0.219557 -0.0289,-0.312643 0.0178,-0.06838 0.0941,-0.122357 0.16019,-0.19327 0.0746,-0.08019 0.13774,-0.166383 0.22066,-0.212907 0.0986,-0.05537 0.21162,-0.09318 0.32195,-0.0956 z m -12.12381,0.192753 -1.79886,0.14056 0.006,0.03927 c 0.07,0.602325 0.18842,1.189531 0.35346,1.757516 l 0.0119,0.03721 1.72082,-0.531234 -0.0103,-0.03514 c -0.12731,-0.443803 -0.2212,-0.902014 -0.27905,-1.370976 z m 11.89746,1.130164 c 0.21012,0.03921 0.41619,0.08357 0.61754,0.133325 0.004,0.0264 0.0103,0.05518 0.0305,0.08062 0.0327,0.04058 0.0742,0.06251 0.11317,0.08217 0.039,0.01966 0.0742,0.03696 0.0977,0.06046 0.0293,0.0293 0.0539,0.06906 0.0785,0.113171 0.0247,0.04411 0.0509,0.09251 0.0956,0.129192 0.0734,0.0602 0.16502,0.06197 0.23048,0.08578 l 0.0114,0.0041 0.0103,-0.0021 c 0,0 0.0447,-0.0099 0.0894,-0.031 -0.003,0.0047 -0.005,0.0099 -0.008,0.01499 -0.0175,0.03146 -0.0202,0.06688 -0.0119,0.0956 0.008,0.02872 0.0247,0.05283 0.0413,0.07235 0.0333,0.03903 0.0723,0.06201 0.0723,0.06201 l 0.008,0.0062 h 0.0103 c 0.10038,0.0097 0.20427,0.03339 0.31419,0.03101 0.0519,-0.0012 0.11502,-0.0074 0.16381,-0.04858 v -0.0021 c 0.0257,-0.02168 0.0365,-0.05039 0.0434,-0.07441 0.007,-0.02402 0.0114,-0.04459 0.0176,-0.05839 0.0199,-0.04428 0.0347,-0.08794 0.0537,-0.126091 0.11297,0.05091 0.22287,0.103682 0.32969,0.159164 -0.11678,0.35269 -0.25245,0.698044 -0.40669,1.033528 -0.0167,0.0084 -0.0334,0.01698 -0.0501,0.02532 l -0.0134,0.0057 -0.006,0.0155 c 0,0 -0.061,0.184909 -0.0997,0.302307 -0.2517,0.494518 -0.54418,0.965337 -0.87643,1.403015 -0.52585,-0.264192 -1.12793,-0.461244 -1.76992,-0.594279 0.3705,-0.932466 0.64537,-1.937815 0.8139,-2.978629 z m 1.43092,0.372587 c 0.0451,0.0156 0.0899,0.03132 0.13436,0.04754 3.8e-4,0.01446 -7.2e-4,0.02745 -0.004,0.03927 -0.008,0.03053 -0.0482,0.06278 -0.0842,0.10542 -0.005,0.0015 -0.0106,0.0036 -0.017,0.0062 0.005,-0.02221 0.003,-0.04747 -0.009,-0.06976 -0.0332,-0.05868 -0.0253,-0.108657 -0.0202,-0.128674 z m 1.08779,0.473873 c 0.19249,0.105034 0.37366,0.217985 0.5426,0.33848 -0.0534,0.04051 -0.10686,0.07991 -0.16226,0.112655 -0.0479,0.02827 -0.12573,0.0311 -0.19327,0.08165 -0.0354,0.02654 -0.0555,0.06218 -0.0739,0.09198 -0.0184,0.02979 -0.0349,0.05313 -0.0548,0.06666 -0.10721,0.07304 -0.23877,0.11556 -0.36536,0.177767 -0.0117,0.0058 -0.0234,0.01122 -0.0351,0.01705 0.12755,-0.289106 0.24169,-0.585016 0.3421,-0.88625 z M 115.21832,22.9619 c 0.33167,0.911001 0.79005,1.768348 1.36633,2.529045 -0.35984,0.18559 -0.67947,0.400629 -0.94568,0.644405 -0.75521,-0.588941 -1.40407,-1.307036 -1.91513,-2.120801 0.41832,-0.400389 0.92508,-0.751524 1.49448,-1.052649 z m -2.84324,0.106453 -1.64486,0.738457 0.016,0.03514 c 0.19322,0.457173 0.4158,0.897782 0.66766,1.320332 l 0.0196,0.03307 1.53531,-0.947229 -0.0196,-0.03152 c -0.21042,-0.355664 -0.39795,-0.728043 -0.55862,-1.113111 z m 16.0197,1.222665 -0.0217,0.03514 c -0.27142,0.444294 -0.57992,0.863024 -0.9219,1.25212 l -0.0274,0.02894 1.37872,1.160136 0.0258,-0.02687 c 0.37833,-0.433229 0.72284,-0.896936 1.02888,-1.386996 l 0.0181,-0.03101 z m -2.91145,0.02222 c 0.0111,0.04553 0.0222,0.08113 0.0222,0.08113 v 0.0021 l 0.002,0.0021 c 0.0404,0.09085 0.0825,0.180081 0.11886,0.269751 0.006,0.01514 0.009,0.0427 0.0139,0.0739 0.005,0.0312 0.0152,0.07183 0.0527,0.09405 0.079,0.04694 0.17364,0.03053 0.24805,0.01344 0.14403,-0.03306 0.26614,-0.109237 0.39274,-0.150378 0.12699,-0.04124 0.2495,-0.09238 0.37104,-0.09767 0.09,-0.0039 0.18296,0.03965 0.2868,0.06821 h 0.002 c 0.0238,0.0065 0.0601,0.03424 0.0997,0.05684 0.0163,0.0093 0.0343,0.01773 0.0537,0.02274 -0.43438,0.548252 -0.93715,1.039942 -1.49552,1.461926 l 0.0419,-0.04341 c -0.27214,-0.262716 -0.59789,-0.490111 -0.96273,-0.684196 0.27882,-0.369062 0.52983,-0.761064 0.75241,-1.170471 z m -4.86586,0.430981 c 0.005,-4.2e-5 0.0103,3.5e-5 0.0155,0 v 3.126424 c -0.0559,-4.16e-4 -0.1118,-0.0011 -0.16743,-0.0026 -0.70878,-0.825016 -1.3038,-1.827134 -1.76165,-2.940389 0.61441,-0.115918 1.26339,-0.178148 1.91357,-0.183451 z m 0.1385,0 c 0.65307,0.0027 1.3046,0.06258 1.92133,0.180351 -0.45784,1.114423 -1.05282,2.11788 -1.76217,2.943489 -0.0529,0.0014 -0.10602,0.0022 -0.15916,0.0026 z m -7.35563,0.162264 -1.43143,1.093473 0.0212,0.02946 c 0.3549,0.482815 0.74914,0.93648 1.17771,1.353406 l 0.0274,0.02532 1.26555,-1.283126 -0.0289,-0.02532 c -0.36849,-0.357482 -0.70511,-0.746533 -1.0082,-1.162203 z m 9.4015,0.04237 c 0.63238,0.129818 1.22497,0.321759 1.74046,0.576709 -0.73948,0.945836 -1.66579,1.732988 -2.75694,2.273763 -0.23133,0.0306 -0.4658,0.05156 -0.7028,0.06253 0.69173,-0.825817 1.27163,-1.817484 1.71928,-2.913 z m -4.22093,0.0031 c 0.44708,1.09411 1.02576,2.084274 1.71669,2.909383 -0.27216,-0.01294 -0.54054,-0.03929 -0.80512,-0.07803 -1.0736,-0.538392 -1.98569,-1.315705 -2.71663,-2.247925 0.53097,-0.255165 1.14648,-0.450404 1.80506,-0.583427 z m 6.07353,0.630453 c 0.36165,0.18956 0.68198,0.411606 0.94774,0.666626 -0.99666,0.741468 -2.16697,1.262448 -3.43906,1.491382 0.97702,-0.543116 1.81235,-1.28479 2.49132,-2.158008 z m -7.99228,0.0093 c 0.66905,0.857725 1.48975,1.587025 2.44688,2.125968 -1.24756,-0.243539 -2.39427,-0.768246 -3.37085,-1.506368 0.25844,-0.233298 0.57094,-0.440055 0.92397,-0.6196 z m 10.24795,0.55087 -0.0274,0.02532 c -0.35241,0.334515 -0.73512,0.638305 -1.13636,0.916223 l -0.0295,0.02119 0.96274,1.523421 0.0315,-0.02325 c 0.50368,-0.338933 0.97747,-0.718332 1.41593,-1.134814 l 0.0274,-0.02739 z m -11.85767,0.505913 -1.18908,1.353405 0.031,0.02532 c 0.46251,0.375462 0.95523,0.713857 1.4764,1.009757 l 0.0336,0.01964 0.88831,-1.568379 -0.0331,-0.01757 C 115.8451,27.235211 115.45185,26.9657 115.08186,26.66969 Z m 9.97097,0.8847 -0.0351,0.01757 c -0.43422,0.237472 -0.89252,0.440148 -1.3715,0.603581 l -0.0387,0.01344 0.65009,1.677933 0.0351,-0.01188 c 0.54586,-0.191262 1.07282,-0.424656 1.57458,-0.697115 l 0.0331,-0.01964 z m -8.08788,0.283187 -0.74621,1.640727 0.0351,0.0155 c 0.52149,0.237601 1.06472,0.435079 1.62677,0.588077 l 0.0357,0.0098 0.56017,-1.717208 -0.0387,-0.0093 c -0.49726,-0.130209 -0.97788,-0.302692 -1.43764,-0.512113 z m 5.94124,0.545186 0.002,0.0057 c -0.43257,0.107186 -0.87726,0.187933 -1.33221,0.230477 l -0.0351,0.0021 0.0372,1.804541 0.0408,-0.0021 c 0.60464,-0.04973 1.19555,-0.149386 1.76785,-0.294556 l 0.0351,-0.0098 -0.42995,-1.709456 -0.0289,0.03721 -0.008,-0.06408 h -0.008 z m -3.67368,0.151929 -0.3731,1.763717 0.0393,0.0078 c 0.55825,0.09509 1.13069,0.146726 1.71462,0.152446 h 0.0372 l 0.0331,-1.800924 h -0.0393 c -0.46848,-0.0038 -0.92793,-0.04394 -1.37666,-0.116789 z" /></g></svg>
